<svg xmlns="http://www.w3.org/2000/svg" width="128" height="128" viewBox="0 0 128 128">
<defs><radialGradient id="ground" cx=".48" cy=".38" r=".8"><stop stop-color="#a48b67" stop-opacity=".28"/><stop offset="1" stop-color="#101920"/></radialGradient><linearGradient id="edge" x1="0" y1="0" x2=".85" y2="1"><stop stop-color="#b9a07b"/><stop offset=".48" stop-color="#655846"/><stop offset="1" stop-color="#403d34"/></linearGradient><linearGradient id="leather" x1="0" y1="0" x2=".85" y2="1"><stop stop-color="#b68a61"/><stop offset=".48" stop-color="#76513b"/><stop offset="1" stop-color="#3f302b"/></linearGradient><linearGradient id="bone" x1="0" y1="0" x2=".85" y2="1"><stop stop-color="#f5ebc9"/><stop offset=".48" stop-color="#d6c396"/><stop offset="1" stop-color="#a58859"/></linearGradient></defs>
<path d="M12 3 C37 2 91 2 116 4 Q124 5 125 14 L125 114 Q125 124 114 125 L14 125 Q3 124 3 113 L3 15 Q3 5 12 3Z" fill="#11191f"/>
<path d="M12 6 L116 6 Q122 7 122 14 L122 114 Q121 121 114 122 L14 122 Q7 121 6 113 L6 15 Q6 8 12 6Z" fill="url(#ground)" stroke="url(#edge)" stroke-width="2.2"/>
<path d="M15 10 L43 10 M10 16 L10 42 M114 118 L89 118 M118 115 L118 90" stroke="#d6c19b" stroke-opacity=".32" stroke-width="1.2" fill="none"/>
<g stroke="#101820" stroke-width="2.5" stroke-linecap="round" stroke-linejoin="round"><g stroke="#101820" stroke-width="2.5" stroke-linecap="round" stroke-linejoin="round">
    <path d="m33 108-13-19 19-20 3-19 7-7-3-17 7-6 9 8 7-11 9 1 4 15 8-7 8 5 0 16 8 2 2 15-12 24-23 10-13 16Z" fill="url(#leather)"/>
    <path d="m53 27 6 18 11-4 5-16m8 8-6 13 12 4 5-15m1 15-6 16-12 1-7-9-12 7-14-8" fill="none" stroke="#4f3828" stroke-width="2"/>
    <path d="m45 51 10 7 15-7 9 7 14-5 1 13-11 9-17 2-16-9-9-8Z" fill="#a37b50"/>
    <path d="m49 50 7-3 6 6-6 7-11-4Z" fill="url(#leather)"/>
    <path d="m40 65 16 10 24 0-4 17-15 7-18-11-13-10Z" fill="url(#bone)"/>
    <path d="m33 80 36 17-10 8-32-20Zm7-10 34 16m-29-15 30 9m-29-5 22 10m-24-3 21 13" fill="none" stroke="#a89c80" stroke-width="1.8"/>
    <path d="m36 77 32 16m-32-11 24 12m-17-28 12 9m3 2 18 0m-15 4 14 1" fill="none" stroke="#f1e5c4" stroke-width="1.8"/>
    <path d="m25 91 9 15 18-13-22-10Z" fill="#795434"/>
    <path d="m28 91 8 9 9-6m-24-7 3-2m14 17 4-4m-15-1 4-4" fill="none" stroke="#d1ad7c" stroke-width="1.6"/>
    <path d="m52 26 5 3 3 12m11-19 3 3 2 10m11-4 4 3-1 10m9 9 5 1-1 10m-36-2 5-3m9 9 7-1" fill="none" stroke="#d6ac75" stroke-width="1.7"/>
    <path d="m49 34 7 2m13-4 7-1m10 7 5 2m-44 25 4 3m21 4 9 0m11-11 5-3" fill="none" stroke="#52392b" stroke-width="1.5"/>
    <path d="m18 68 4-8m83 20 6-7m-29 33 10-9m-24 17 5-4m-49-66 5 3" fill="none" stroke="#afc5a4" stroke-width="1.8"/>
    <path d="m58 21 2 3m20-5 1 6m-6 70 0 6" fill="none" stroke="#ecce96" stroke-width="1.3"/>
  </g></g>
</svg>
